<?xml version="1.0" encoding="UTF-8"?>
<svg width="5869px" height="903px" viewBox="0 0 5869 903" version="1.1" xmlns="http://www.w3.org/2000/svg" xmlns:xlink="http://www.w3.org/1999/xlink">
    <title>Group</title>
    <g id="Page-1" stroke="none" stroke-width="1" fill="none" fill-rule="evenodd">
        <g id="layercode-wave" transform="translate(-1947.000000, -1961.001160)" fill="#000000" fill-rule="nonzero">
            <g id="g8" transform="translate(4900.075211, 4131.527230) scale(-1, 1) rotate(-180.000000) translate(-4900.075211, -4131.527230) translate(0.000000, 0.000000)">
                <g id="g12" transform="translate(1947.478351, 1822.679763)">
                    <g id="Group" transform="translate(-0.000000, 3576.865911)">
                        <g id="g18" transform="translate(1130.818905, 206.700320)">
                            <path d="M279.689326,0 L201.162662,0 C129.471997,0 78.023998,18.5226662 46.8186655,55.5626653 C15.6039996,92.6079977 0,154.167996 0,240.263994 L0,694.997316 L150.742663,694.997316 L150.742663,263.347993 C150.742663,196.570662 157.767996,178.281329 171.835996,159.421329 C185.897329,140.555996 198.182662,138.84133 231.799994,138.84133 L282.581326,138.84133" id="path20"></path>
                        </g>
                        <g id="g22" transform="translate(588.729585, 206.389787)">
                            <path d="M179.093329,0 L156.986663,0 L195.143995,0 L252.777327,0 L252.777327,415.01599 C252.777327,515.56532 238.885327,587.462652 211.095995,630.725318 C183.313329,673.989316 137.50933,695.617316 73.6839982,695.617316 L95.7933309,695.617316 L57.6333319,695.617316 L0,695.617316 L0,280.60266 C0,180.051995 13.893333,108.155997 41.6813323,64.8919984 C69.4653316,21.6359995 115.266664,0 179.093329,0" id="path24"></path>
                        </g>
                        <g id="g26" transform="translate(295.982126, 206.389653)">
                            <path d="M211.095995,64.8919984 C238.882661,108.155997 252.777327,180.051995 252.777327,280.60266 L252.777327,695.617316 L195.143995,695.617316 L156.983996,695.617316 L179.093329,695.617316 C115.267997,695.617316 69.4639983,673.989316 41.6813323,630.725318 C13.8919997,587.462652 0,515.56532 0,415.01599 L0,-1.89478058e-14 L57.6333319,-1.89478058e-14 L95.7906643,-1.89478058e-14 L73.6839982,-1.89478058e-14 C137.50933,-1.89478058e-14 183.310662,21.6359995 211.095995,64.8919984" id="path28"></path>
                        </g>
                        <g id="g30" transform="translate(0.000000, 206.389787)">
                            <path d="M179.093329,0 L156.986663,0 L195.143995,0 L252.775994,0 L252.775994,415.01599 C252.775994,515.56532 238.885327,587.462652 211.095995,630.725318 C183.313329,673.989316 137.50933,695.617316 73.6839982,695.617316 L95.7933309,695.617316 L57.6333319,695.617316 L0,695.617316 L0,280.60266 C0,180.051995 13.893333,108.155997 41.6813323,64.8919984 C69.4653316,21.6359995 115.266664,0 179.093329,0" id="path32"></path>
                        </g>
                        <g id="g34" transform="translate(1968.273417, 0.000000)">
                            <path d="M424.070656,737.635107 L296.511993,350.245783 L163.263996,737.805773 L0,739.005773 L186.189329,207.633787 L249.611994,207.17912 C219.673328,127.385789 195.974662,123.637789 141.131996,123.637789 L71.7253315,123.637789 L71.7253315,0.0311252565 L162.757329,0.0311252565 C342.127991,-2.30620802 367.158657,127.513789 402.842657,215.021787 C438.526656,302.528451 582.738652,737.635107 582.738652,737.635107 L424.070656,737.635107 Z" id="path36"></path>
                        </g>
                        <g id="g38" transform="translate(1455.322897, 193.821387)">
                            <path d="M361.811991,218.862661 L361.811991,242.523994 L223.793328,227.734661 C173.513329,221.818661 151.823996,204.073328 151.823996,170.554662 C151.823996,138.019997 172.525329,109.430664 236.609327,109.430664 C329.279992,109.430664 361.811991,162.667996 361.811991,218.862661 M0,156.751996 C0,256.323994 71.9693315,308.577326 182.386662,319.419992 L361.811991,336.179992 L361.811991,362.798658 C361.811991,416.03599 325.337325,439.697322 263.22666,439.697322 C195.202662,439.697322 165.625329,407.162656 158.723996,373.643991 L154.781329,350.967991 L6.90133316,350.967991 C11.8319997,469.271988 106.474664,558.001319 265.19866,558.001319 L273.083993,558.001319 C433.781322,558.001319 515.607987,482.089321 515.607987,363.783991 L515.607987,12.8146663 L363.785324,12.8146663 L363.785324,77.8826647 C333.222658,27.602666 272.099993,0 182.386662,0 C69.9959983,0 0,59.1506652 0,156.751996" id="path40"></path>
                        </g>
                        <g id="g42" transform="translate(4076.391631, 193.820987)">
                            <path d="M414.066656,276.04266 L414.066656,281.95866 C414.066656,389.417324 364.771991,433.781322 286.887993,433.781322 C209.006661,433.781322 158.726663,389.417324 158.726663,281.95866 L158.726663,276.04266 C158.726663,168.582662 209.006661,124.219997 286.887993,124.219997 C364.771991,124.219997 414.066656,168.582662 414.066656,276.04266 M283.929326,0 C99.5733308,0 0,112.387997 0,277.029326 L0,280.971993 C0,445.611989 99.5733308,558.001319 283.929326,558.001319 L288.861326,558.001319 C473.217322,558.001319 573.775986,445.611989 573.775986,280.971993 L573.775986,277.029326 C573.775986,112.387997 473.217322,0 288.861326,0 L283.929326,0 Z" id="path44"></path>
                        </g>
                        <g id="g46" transform="translate(4689.333749, 193.820720)">
                            <path d="M414.066656,277.029326 L414.066656,280.971993 C414.066656,389.418657 363.786658,433.781322 286.887993,433.781322 C209.006661,433.781322 158.726663,388.43199 158.726663,280.971993 L158.726663,277.029326 C158.726663,168.583996 209.006661,124.219997 286.887993,124.219997 C363.786658,124.219997 414.066656,169.567996 414.066656,277.029326 M0,277.029326 L0,281.95866 C0,443.639989 85.7719979,558.001319 247.45466,558.001319 C328.293325,558.001319 377.587991,522.50932 414.066656,477.159988 L414.066656,707.811982 L569.833319,707.811982 L569.833319,12.8159997 L413.078656,12.8159997 L413.078656,79.8546647 C376.602657,38.447999 329.281325,0 242.523994,0 C85.7719979,0 0,112.389331 0,277.029326" id="path48"></path>
                        </g>
                        <g id="g50" transform="translate(3138.462988, 206.636453)">
                            <path d="M0,0 L0,326.241325 C0,409.706656 23.8853327,467.530655 80.3453313,507.995987 C143.451996,553.22532 254.077327,545.958653 334.298658,545.958653 L327.683992,404.525323 L258.177327,404.525323 C182.015995,404.525323 156.271996,375.123991 156.271996,293.669326 L156.271996,0 L0,0 Z" id="path52"></path>
                        </g>
                        <g id="g54" transform="translate(3476.775380, 193.821254)">
                            <path d="M404.05999,223.201328 L401.24799,211.961328 C391.390657,163.653329 350.973325,124.219997 284.91866,124.219997 C197.135995,124.219997 158.727996,179.427996 158.727996,277.029326 L158.727996,280.971993 C158.727996,378.573324 207.034661,433.781322 284.91866,433.781322 C350.973325,433.781322 391.390657,395.33199 401.24799,347.025325 L404.738657,333.063992 L561.986653,354.095991 C544.755986,462.055988 455.323989,558.002653 289.845326,558.002653 L284.91866,558.002653 C98.5893309,558.002653 0,433.781322 0,280.971993 L0,277.029326 C0,124.219997 90.7026644,0 280.973326,0 L286.889326,0 C453.439989,0 543.798653,94.9586643 560.805319,202.237328 L404.05999,223.201328 Z" id="path56"></path>
                        </g>
                        <g id="g58" transform="translate(2527.841270, 193.819387)">
                            <path d="M164.638663,341.110658 C166.611996,396.318657 212.949328,441.669322 284.91866,441.669322 C352.942658,441.669322 400.26399,401.249323 402.234657,345.054658 L402.234657,334.210658 L164.638663,334.210658 L164.638663,341.110658 Z M394.894657,174.574662 C377.985324,141.799996 350.949325,120.275997 289.846659,120.275997 L288.861326,120.275997 C209.990661,120.275997 161.683996,173.513329 160.695996,238.581327 L160.695996,247.455994 L563.917319,247.455994 L565.890653,295.758659 C570.817319,429.838656 478.147988,558.003986 289.846659,558.003986 L284.91866,558.003986 C100.558664,558.003986 0,440.685322 0,284.917326 L0,273.08666 C0,117.319997 90.7013311,0 279.987993,0 L286.887993,0 C428.713323,0 510.865321,62.9346651 546.762653,147.870663 L394.894657,174.574662 Z" id="path60"></path>
                        </g>
                        <g id="g62" transform="translate(5301.638667, 193.819387)">
                            <path d="M164.638663,341.110658 C166.610663,396.318657 212.947995,441.669322 284.915993,441.669322 C352.938658,441.669322 400.261323,401.249323 402.233323,345.054658 L402.233323,334.210658 L164.638663,334.210658 L164.638663,341.110658 Z M394.977323,174.733329 C378.071991,141.867996 351.047991,120.275997 289.843993,120.275997 L288.859993,120.275997 C209.991995,120.275997 161.682663,173.513329 160.695996,238.581327 L160.695996,247.455994 L563.915986,247.455994 L565.887986,295.758659 C570.814652,429.838656 478.143988,558.003986 289.843993,558.003986 L284.915993,558.003986 C100.557331,558.003986 0,440.685322 0,284.917326 L0,273.08666 C0,117.319997 90.6986644,0 279.983993,0 L286.887993,0 C428.803989,0 510.966654,63.0146651 546.827986,148.03333 L394.977323,174.733329 Z" id="path64"></path>
                        </g>
                    </g>
                </g>
            </g>
        </g>
    </g>
</svg>